<svg xmlns="http://www.w3.org/2000/svg" xmlns:xlink="http://www.w3.org/1999/xlink" viewBox="0 0 500 500" width="500" height="500" preserveAspectRatio="xMidYMid meet" style="width: 100%; height: 100%; transform: translate3d(0px, 0px, 0px); content-visibility: visible;" id="Heart Balloons"><defs><clipPath id="__lottie_element_1717"><rect width="500" height="500" x="0" y="0"/></clipPath><symbol id="__lottie_element_1721"><g><g transform="matrix(0.7459999918937683,0,0,0.7459999918937683,347.26800537109375,325.135009765625)" opacity="1" style="display: block;"><g opacity="1" transform="matrix(0.9344900250434875,0,0,0.9344900250434875,-129.70799255371094,-99.87699890136719)"><path fill="rgb(242,122,152)" fill-opacity="1" d=" M256,0 C256,141.38499450683594 141.38499450683594,256 0,256 C-141.38499450683594,256 -256,141.38499450683594 -256,0 C-256,-141.38499450683594 -141.38499450683594,-256 0,-256 C141.38499450683594,-256 256,-141.38499450683594 256,0z"/></g></g></g></symbol><mask id="__lottie_element_1721_1" mask-type="alpha"><use xmlns:ns1="http://www.w3.org/1999/xlink" ns1:href="#__lottie_element_1721"/></mask></defs><g clip-path="url(#__lottie_element_1717)"><g transform="matrix(0.9399999976158142,0,0,0.9399999976158142,262.2200012207031,259.3999938964844)" opacity="0.72" style="display: block;"><g opacity="1" transform="matrix(1.5537199974060059,0,0,1.557379961013794,-13,-10)"><path fill="rgb(255,136,150)" fill-opacity="1" d=" M0,-122 C67.33180236816406,-122 122,-67.33180236816406 122,0 C122,67.33180236816406 67.33180236816406,122 0,122 C-67.33180236816406,122 -122,67.33180236816406 -122,0 C-122,-67.33180236816406 -67.33180236816406,-122 0,-122z"/><path stroke-linecap="butt" stroke-linejoin="miter" fill-opacity="0" stroke-miterlimit="4" stroke="rgb(242,235,5)" stroke-opacity="1" stroke-width="0" d=" M0,-122 C67.33180236816406,-122 122,-67.33180236816406 122,0 C122,67.33180236816406 67.33180236816406,122 0,122 C-67.33180236816406,122 -122,67.33180236816406 -122,0 C-122,-67.33180236816406 -67.33180236816406,-122 0,-122z"/></g></g><g transform="matrix(0.9399999976158142,0,0,0.9399999976158142,262.2200012207031,259.3999938964844)" opacity="0.72" style="display: block;"><g opacity="1" transform="matrix(1.4882299900054932,0,0,1.491729974746704,-13,-10)"><path stroke-linecap="butt" stroke-linejoin="miter" fill-opacity="0" stroke-miterlimit="4" stroke="rgb(231,40,99)" stroke-opacity="1" stroke-width="3" d=" M0,-122 C67.33180236816406,-122 122,-67.33180236816406 122,0 C122,67.33180236816406 67.33180236816406,122 0,122 C-67.33180236816406,122 -122,67.33180236816406 -122,0 C-122,-67.33180236816406 -67.33180236816406,-122 0,-122z"/></g></g><g mask="url(#__lottie_element_1721_1)" style="display: block;"><g transform="matrix(0.7459973692893982,0,0,0.7459973692893982,347.2669982910156,311.34234619140625)" opacity="0.1"><g opacity="1" transform="matrix(1,0,0,1,0,0)"><path fill="rgb(0,0,0)" fill-opacity="1" d=" M-188.53599548339844,-27.966999053955078 C-188.53599548339844,-27.966999053955078 63.792999267578125,221.35800170898438 63.792999267578125,221.35800170898438 C134.8719940185547,179.00100708007812 183.69500732421875,103.19999694824219 188.53599548339844,15.657999992370605 C188.53599548339844,15.657999992370605 -57.6150016784668,-221.35800170898438 -57.6150016784668,-221.35800170898438 C-57.6150016784668,-221.35800170898438 -188.53599548339844,-27.966999053955078 -188.53599548339844,-27.966999053955078z"/></g></g></g><g style="display: block;" transform="matrix(0.7459973692893982,0,0,0.7459973692893982,183.94430541992188,346.33782958984375)" opacity="1"><g opacity="1" transform="matrix(1,0,0,1,0,0)"><path fill="rgb(242,242,242)" fill-opacity="1" d=" M50.98400115966797,-83.45600128173828 C50.98400115966797,-83.45600128173828 40.69200134277344,-83.39800262451172 34.10900115966797,-88.03500366210938 C33.8120002746582,-88.26899719238281 33.46900177001953,-88.19000244140625 33.33100128173828,-88.1719970703125 C17.968000411987305,-85.96299743652344 -25.45199966430664,-54.1510009765625 -12.062000274658203,16.764999389648438 C1.437999963760376,88.26499938964844 -37.5620002746582,75.76499938964844 -51.0620002746582,87.26499938964844 C-51.0620002746582,87.26499938964844 -50.5,88.19999694824219 -50.5,88.19999694824219 C-37,76.69999694824219 2.437999963760376,88.26499938964844 -11.062000274658203,16.764999389648438 C-24.097999572753906,-52.27799987792969 17.392000198364258,-83.85399627685547 33.73400115966797,-87.53500366210938 C33.7130012512207,-87.52400207519531 33.875,-87.47200012207031 34.09000015258789,-87.31199645996094 C40.67300033569336,-82.67500305175781 51.0620002746582,-82.67500305175781 51.0620002746582,-82.67500305175781 C51.0620002746582,-82.67500305175781 50.98400115966797,-83.45600128173828 50.98400115966797,-83.45600128173828z"/></g></g><g style="display: block;" transform="matrix(0.7459973692893982,0,0,0.7459973692893982,-162.33871459960938,-147.270751953125)" opacity="1"><g opacity="1" transform="matrix(1,0,0,1,537.677001953125,468.61199951171875)"><path fill="rgb(191,33,81)" fill-opacity="1" d=" M13.407999992370605,-74.89199829101562 C-35.85499954223633,-176.08900451660156 -230.24099731445312,-37.18899917602539 -29.354000091552734,109.47799682617188 C215.58399963378906,66.22000122070312 102.19000244140625,-144.06900024414062 13.407999992370605,-74.89199829101562z"/></g><g opacity="1" transform="matrix(1,0,0,1,504.9739990234375,578.0900268554688)"><path fill="rgb(191,33,82)" fill-opacity="1" d=" M9.031000137329102,8.76099967956543 C5.201000213623047,11.86299991607666 -8.678999900817871,9.343000411987305 -10.255999565124512,4.672999858856201 C-11.593000411987305,0.7120000123977661 -2.4730000495910645,-10.128000259399414 -2.4730000495910645,-10.128000259399414 C-2.4730000495910645,-10.128000259399414 9.031000137329102,-6.985000133514404 9.031000137329102,-6.985000133514404 C9.031000137329102,-6.985000133514404 12.08899974822998,6.2829999923706055 9.031000137329102,8.76099967956543z"/></g><g opacity="1" transform="matrix(1,0,0,1,545.2899780273438,397.53399658203125)"><path fill="rgb(242,122,152)" fill-opacity="1" d=" M5.875999927520752,23.739999771118164 C12.001999855041504,6.4070000648498535 -2.0380001068115234,-19.7189998626709 -8.684000015258789,-23.739999771118164 C3.8359999656677246,-12.095000267028809 13.751999855041504,6.1570000648498535 5.875999927520752,23.739999771118164z"/></g><g opacity="1" transform="matrix(1,0,0,1,630.8319702148438,470.77398681640625)"><path fill="rgb(242,122,152)" fill-opacity="1" d=" M3.627000093460083,-64.66699981689453 C37.9739990234375,-13.607000350952148 19.969999313354492,32.34199905395508 -21.707000732421875,64.66699981689453 C-21.707000732421875,64.66699981689453 49.21099853515625,14.916000366210938 3.627000093460083,-64.66699981689453z"/></g></g><g style="display: block;" transform="matrix(0.7459973692893982,0,0,0.7459973692893982,246.6879425048828,380.1592712402344)" opacity="1"><g opacity="1" transform="matrix(1,0,0,1,0,0)"><path fill="rgb(242,242,242)" fill-opacity="1" d=" M43.891998291015625,-71.32599639892578 C43.891998291015625,-71.32599639892578 43.79800033569336,-71.95099639892578 43.79800033569336,-71.95099639892578 C43.79800033569336,-71.95099639892578 35.15800094604492,-71.85700225830078 29.500999450683594,-75.84100341796875 C29.368000030517578,-75.82499694824219 29.04199981689453,-75.75599670410156 28.90399932861328,-75.73600006103516 C28.90399932861328,-75.73600006103516 28.905000686645508,-75.73500061035156 28.905000686645508,-75.73500061035156 C15.96399974822998,-74.19000244140625 -21.966999053955078,-46.902000427246094 -10.378999710083008,14.473999977111816 C1.222000002861023,75.91300201416016 -32.29100036621094,65.1719970703125 -43.891998291015625,75.05400085449219 C-43.891998291015625,75.05400085449219 -43.71200180053711,75.84100341796875 -43.71200180053711,75.84100341796875 C-32.111000061035156,65.95899963378906 2.180999994277954,75.48799896240234 -9.420999526977539,14.048999786376953 C-20.87700080871582,-46.62300109863281 16.02899932861328,-73.2770004272461 29.378999710083008,-75.38800048828125 C35.02799987792969,-71.19100189208984 43.891998291015625,-71.32599639892578 43.891998291015625,-71.32599639892578z"/></g></g><g style="display: block;" transform="matrix(0.7459973692893982,0,0,0.7459973692893982,-162.33871459960938,-138.45811462402344)" opacity="1"><g opacity="1" transform="matrix(1,0,0,1,611.5009765625,529.3729858398438)"><path fill="rgb(231,40,99)" fill-opacity="1" d=" M11.520999908447266,-64.35399627685547 C-30.80900001525879,-151.30999755859375 -197.84300231933594,-31.95599937438965 -25.224000930786133,94.072998046875 C185.2469940185547,56.902000427246094 87.80999755859375,-123.7969970703125 11.520999908447266,-64.35399627685547z"/></g><g opacity="1" transform="matrix(1,0,0,1,583.4000244140625,623.4450073242188)"><path fill="rgb(219,38,94)" fill-opacity="1" d=" M7.760000228881836,7.5279998779296875 C4.4679999351501465,10.192999839782715 -7.458000183105469,8.027999877929688 -8.812000274658203,4.014999866485596 C-9.961000442504883,0.6119999885559082 -2.125999927520752,-8.70300006866455 -2.125999927520752,-8.70300006866455 C-2.125999927520752,-8.70300006866455 7.760000228881836,-6.001999855041504 7.760000228881836,-6.001999855041504 C7.760000228881836,-6.001999855041504 10.38700008392334,5.3979997634887695 7.760000228881836,7.5279998779296875z"/></g><g opacity="1" transform="matrix(1,0,0,1,618.0430297851562,468.2969970703125)"><path fill="rgb(242,122,152)" fill-opacity="1" d=" M5.048999786376953,20.39900016784668 C10.312999725341797,5.504000186920166 -1.7510000467300415,-16.944000244140625 -7.461999893188477,-20.39900016784668 C3.2960000038146973,-10.392000198364258 11.817000389099121,5.289999961853027 5.048999786376953,20.39900016784668z"/></g><g opacity="1" transform="matrix(1,0,0,1,691.5479736328125,531.2310180664062)"><path fill="rgb(242,122,152)" fill-opacity="1" d=" M3.115999937057495,-55.56700134277344 C32.630001068115234,-11.692999839782715 17.15999984741211,27.790000915527344 -18.652999877929688,55.56700134277344 C-18.652999877929688,55.56700134277344 42.28499984741211,12.817999839782715 3.115999937057495,-55.56700134277344z"/></g></g></g></svg>